<svg width="420" height="420" viewBox="0 0 420 420" fill="none" xmlns="http://www.w3.org/2000/svg">
<rect width="420" height="420" fill="white"/>
<path d="M159.81 143.72L141.7 123.78L139.918 121.696C137.641 119.018 136.504 117.034 136.504 115.744C136.504 113.463 139.176 112.321 144.52 112.321H167.826L161.443 90H137.84C117.452 90 107.261 97.6405 107.261 112.917C107.261 117.183 108.1 121.027 109.784 124.449C111.466 127.872 114.583 132.113 119.136 137.173L135.91 155.774L138.137 158.304C139.918 160.289 140.809 161.926 140.809 163.214C140.809 165 139.918 166.142 138.137 166.637C137.344 166.837 135.662 166.935 133.09 166.935H107.706L114.089 189.256H140.512C160.798 189.256 170.943 181.667 170.943 166.488C170.943 159.445 167.232 151.856 159.81 143.72Z" fill="#32A336"/>
<path d="M233.958 118.943C229.157 115.721 221.463 114.107 210.875 114.107C198.206 114.107 189.128 116.39 183.635 120.952C178.143 125.517 175.396 133.057 175.396 143.571C175.396 157.56 179.725 168.672 188.385 176.905C197.044 185.14 208.697 189.256 223.344 189.256H231.806L237.15 169.464H229.43C223.69 169.464 218.742 169.018 214.586 168.125C224.184 162.47 231.012 157.09 235.071 151.979C239.128 146.871 241.158 141.093 241.158 134.643C241.158 127.402 238.757 122.169 233.958 118.943ZM199.89 153.839C199.296 150.765 198.999 147.987 198.999 145.506C198.999 138.166 202.907 134.494 210.726 134.494C215.277 134.494 217.555 135.833 217.555 138.512C217.555 143.076 211.666 148.185 199.89 153.839Z" fill="#32A336"/>
<path d="M312.856 144.911C312.856 133.404 310.875 125.691 306.918 121.771C302.959 117.853 295.14 115.893 283.464 115.893H250.509V189.256H273.815V135.684H278.268C283.612 135.684 286.827 136.38 287.917 137.768C289.005 139.158 289.55 143.225 289.55 149.97V189.256H312.856V144.911Z" fill="#32A336"/>
<path d="M104.887 204.256H80.5425L58.8695 232.827L37.4934 204.256H13V303.512H38.9779V246.518L58.8695 272.559L78.9096 246.518V303.512H104.887V204.256Z" fill="#32A336"/>
<path d="M181.781 230.149H150.904C138.732 230.149 129.874 232.381 124.333 236.845C118.789 241.309 116.02 248.504 116.02 258.422C116.02 272.213 120.496 283.176 129.454 291.309C138.409 299.445 150.408 303.512 165.452 303.512H181.781V230.149ZM144.818 275.536C141.353 271.171 139.623 265.963 139.623 259.911C139.623 256.242 140.587 253.661 142.517 252.172C144.447 250.684 147.885 249.94 152.834 249.94H158.475V283.72C152.834 282.63 148.281 279.902 144.818 275.536Z" fill="#32A336"/>
<path d="M257.486 259.167C257.486 247.659 255.506 239.947 251.549 236.027C247.589 232.109 239.77 230.149 228.094 230.149H195.14V303.512H218.445V249.94H222.899C228.243 249.94 231.458 250.636 232.548 252.024C233.636 253.414 234.181 257.481 234.181 264.226V303.512H257.487L257.486 259.167Z" fill="#32A336"/>
<path d="M332.598 230.149H302.018C289.845 230.149 280.939 232.406 275.298 236.92C269.657 241.435 266.836 248.652 266.836 258.571C266.836 270.974 270.919 281.488 279.083 290.119C287.247 298.75 297.316 303.065 309.292 303.065V304.702C309.292 307.181 308.401 308.669 306.619 309.167C305.926 309.364 303.848 309.464 300.385 309.464H272.774L278.712 329.256H305.877C315.675 329.256 322.577 327.519 326.585 324.047C330.593 320.574 332.597 314.524 332.597 305.893L332.598 230.149ZM295.486 275.461C292.121 271.346 290.439 266.26 290.439 260.208C290.439 256.439 291.404 253.786 293.334 252.247C295.264 250.71 298.604 249.94 303.354 249.94H309.292V282.976C303.451 282.083 298.849 279.579 295.486 275.461Z" fill="#32A336"/>
<path d="M407.117 230.149H376.24C364.068 230.149 355.21 232.381 349.668 236.845C344.125 241.309 341.355 248.504 341.355 258.422C341.355 272.213 345.832 283.176 354.79 291.309C363.745 299.445 375.744 303.512 390.788 303.512H407.117V230.149ZM370.154 275.536C366.689 271.171 364.958 265.963 364.958 259.911C364.958 256.242 365.923 253.661 367.853 252.172C369.783 250.684 373.22 249.94 378.17 249.94H383.811V283.72C378.17 282.63 373.617 279.902 370.154 275.536Z" fill="#32A336"/>
</svg>
